  
<svg xmlns:xlink="http://www.w3.org/1999/xlink" aria-hidden="true"
     style="position: absolute; width: 0; height: 0; overflow: hidden;"
     version="1.1" xmlns="http://www.w3.org/2000/svg">
    <defs>
        <symbol id="icon-chevron-right" viewBox="0 0 19 28">
            <title>chevron-right</title>
            <path d="M17.297 13.703l-11.594 11.594c-0.391 0.391-1.016 0.391-1.406 0l-2.594-2.594c-0.391-0.391-0.391-1.016 0-1.406l8.297-8.297-8.297-8.297c-0.391-0.391-0.391-1.016 0-1.406l2.594-2.594c0.391-0.391 1.016-0.391 1.406 0l11.594 11.594c0.391 0.391 0.391 1.016 0 1.406z"></path>
        </symbol>
        <symbol id="icon-chevron-left" viewBox="0 0 21 28">
            <title>chevron-left</title>
            <path d="M18.297 4.703l-8.297 8.297 8.297 8.297c0.391 0.391 0.391 1.016 0 1.406l-2.594 2.594c-0.391 0.391-1.016 0.391-1.406 0l-11.594-11.594c-0.391-0.391-0.391-1.016 0-1.406l11.594-11.594c0.391-0.391 1.016-0.391 1.406 0l2.594 2.594c0.391 0.391 0.391 1.016 0 1.406z"></path>
        </symbol>
        <symbol id="icon-chevron-up" viewBox="0 0 20 20">
            <title>chevron-up</title>
            <path d="M15.825 12.82c-.104.113-.25.18-.397.18-.145 0-.292-.067-.396-.18l-5.03-5.392L4.95 12.82c-.104.113-.25.18-.397.18-.145 0-.292-.067-.396-.18-.21-.222-.21-.6 0-.846L9.584 6.18C9.688 6.066 9.856 6 10 6c.147 0 .294.044.42.18l5.426 5.794c.21.224.21.602-.02.847z"></path>
        </symbol>
        <symbol id="icon-search" viewBox="0 0 32 32">
            <title>search</title>
            <path d="M31.008 27.231l-7.58-6.447c-0.784-0.705-1.622-1.029-2.299-0.998 1.789-2.096 2.87-4.815 2.87-7.787 0-6.627-5.373-12-12-12s-12 5.373-12 12 5.373 12 12 12c2.972 0 5.691-1.081 7.787-2.87-0.031 0.677 0.293 1.515 0.998 2.299l6.447 7.58c1.104 1.226 2.907 1.33 4.007 0.23s0.997-2.903-0.23-4.007zM12 20c-4.418 0-8-3.582-8-8s3.582-8 8-8 8 3.582 8 8-3.582 8-8 8z"></path>
        </symbol>
        <symbol id="icon-warning" viewBox="0 0 12 10">
            <title>warning</title>
            <path fill="#FFF" fill-rule="nonzero"
                  d="M11.912 9.328L6.378.227A.455.455 0 0 0 6 0a.448.448 0 0 0-.377.227L.089 9.328c-.075.13-.129.339-.051.466.078.128.22.206.375.206h11.172a.437.437 0 0 0 .375-.206c.08-.127.027-.338-.048-.466zM6.857 8.75H5.143V7.5h1.714v1.25zm0-2.083H5.143v-3.75h1.714v3.75z"/>
        </symbol>
        <symbol id="icon-chevron-left-skinny" viewBox="0 0 24 24">
            <title>chevron-left-skinny</title>
            <path d="M15.707 17.293l-5.293-5.293 5.293-5.293c0.391-0.391 0.391-1.024 0-1.414s-1.024-0.391-1.414 0l-6 6c-0.391 0.391-0.391 1.024 0 1.414l6 6c0.391 0.391 1.024 0.391 1.414 0s0.391-1.024 0-1.414z"></path>
        </symbol>
        <symbol id="icon-chevron-right-skinny" viewBox="0 0 24 24">
            <title>chevron-right-skinny</title>
            <path d="M9.707 18.707l6-6c0.391-0.391 0.391-1.024 0-1.414l-6-6c-0.391-0.391-1.024-0.391-1.414 0s-0.391 1.024 0 1.414l5.293 5.293-5.293 5.293c-0.391 0.391-0.391 1.024 0 1.414s1.024 0.391 1.414 0z"></path>
        </symbol>
        <symbol id="icon-x" viewBox="0 0 24 24">
            <title>x</title>
            <path d="M5.293 6.707l5.293 5.293-5.293 5.293c-0.391 0.391-0.391 1.024 0 1.414s1.024 0.391 1.414 0l5.293-5.293 5.293 5.293c0.391 0.391 1.024 0.391 1.414 0s0.391-1.024 0-1.414l-5.293-5.293 5.293-5.293c0.391-0.391 0.391-1.024 0-1.414s-1.024-0.391-1.414 0l-5.293 5.293-5.293-5.293c-0.391-0.391-1.024-0.391-1.414 0s-0.391 1.024 0 1.414z"></path>
        </symbol>
        <symbol id="icon-clock" viewBox="0 0 32 32">
            <title>clock</title>
            <path d="M17.44 16.32v1.76h-8.64v-1.76h6.88v-10.56h1.76v10.56zM16 32c-8.837 0-16-7.163-16-16s7.163-16 16-16c8.837 0 16 7.163 16 16s-7.163 16-16 16zM16 28.8c7.069 0 12.8-5.731 12.8-12.8s-5.731-12.8-12.8-12.8c-7.069 0-12.8 5.731-12.8 12.8s5.731 12.8 12.8 12.8z"></path>
        </symbol>
        <symbol id="icon-calendar" viewBox="0 0 32 32">
            <title>calendar</title>
            <path d="M18.982 7.19v-5.958c0-0.68 0.548-1.232 1.225-1.232h3.674c0.676 0 1.225 0.552 1.225 1.232v3.388h5.455c0.707 0 1.28 0.573 1.28 1.28v24.255c0 1.019-0.822 1.845-1.837 1.845h-28.166c-1.014 0-1.837-0.826-1.837-1.845v-24.255c0-0.707 0.573-1.28 1.28-1.28h5.455v1.285-4.673c0-0.68 0.548-1.232 1.225-1.232h3.674c0.676 0 1.225 0.552 1.225 1.232v3.388h6.123v2.57zM12.32 30.77v-5.090h-5.12v5.090h5.12zM13.28 30.77h5.28v-5.090h-5.28v5.090zM19.52 30.77h5.12v-5.090h-5.12v5.090zM25.6 30.77h4.403c0.338 0 0.612-0.275 0.612-0.615v-4.475h-5.015v5.090zM30.615 24.72v-5.28h-5.015v5.28h5.015zM30.615 18.48v-4.93h-5.015v4.93h5.015zM24.64 13.55h-5.12v4.93h5.12v-4.93zM18.56 13.55h-5.28v4.93h5.28v-4.93zM12.32 13.55h-5.12v4.93h5.12v-4.93zM6.24 13.55h-5.015v4.93h5.015v-4.93zM1.225 19.44v5.28h5.015v-5.28h-5.015zM1.225 25.68v4.475c0 0.34 0.274 0.615 0.612 0.615h4.403v-5.090h-5.015zM7.2 24.72h5.12v-5.28h-5.12v5.28zM24.64 19.44h-5.12v5.28h5.12v-5.28zM18.56 19.44h-5.28v5.28h5.28v-5.28zM8.113 1.386v6.468h3.368v-6.468h-3.368zM20.359 1.386v6.468h3.368v-6.468h-3.368z"></path>
        </symbol>
        <symbol id="icon-play-button" viewBox="0 0 32 32">
            <title>play-button</title>
            <path d="M16 32c-8.837 0-16-7.163-16-16s7.163-16 16-16c8.837 0 16 7.163 16 16s-7.163 16-16 16zM22.88 16l-11.2-7.040v14.080l11.2-7.040z"></path>
        </symbol>
        <symbol id="icon-cancel-circle" viewBox="0 0 32 32">
            <title>cancel-circle</title>
            <path d="M16 0c-8.837 0-16 7.163-16 16s7.163 16 16 16 16-7.163 16-16-7.163-16-16-16zM16 29c-7.18 0-13-5.82-13-13s5.82-13 13-13 13 5.82 13 13-5.82 13-13 13z"></path>
            <path d="M21 8l-5 5-5-5-3 3 5 5-5 5 3 3 5-5 5 5 3-3-5-5 5-5z"></path>
        </symbol>
        <symbol id="icon-user" viewBox="0 0 32 32">
            <title>user</title>
            <path d="M18 22.082v-1.649c2.203-1.241 4-4.337 4-7.432 0-4.971 0-9-6-9s-6 4.029-6 9c0 3.096 1.797 6.191 4 7.432v1.649c-6.784 0.555-12 3.888-12 7.918h28c0-4.030-5.216-7.364-12-7.918z"></path>
        </symbol>
    </defs>
</svg>